G04*
G04 #@! TF.GenerationSoftware,Altium Limited,Altium Designer,21.1.1 (26)*
G04*
G04 Layer_Physical_Order=2*
G04 Layer_Color=16711680*
%FSLAX25Y25*%
%MOIN*%
G70*
G04*
G04 #@! TF.SameCoordinates,50609B49-341D-4E51-95AC-B49047DEAD09*
G04*
G04*
G04 #@! TF.FilePolarity,Positive*
G04*
G01*
G75*
%ADD10C,0.01000*%
%ADD14C,0.06000*%
%ADD15C,0.02362*%
%ADD16R,0.05315X0.03740*%
G04:AMPARAMS|DCode=17|XSize=63.16mil|YSize=128.43mil|CornerRadius=18.63mil|HoleSize=0mil|Usage=FLASHONLY|Rotation=90.000|XOffset=0mil|YOffset=0mil|HoleType=Round|Shape=RoundedRectangle|*
%AMROUNDEDRECTD17*
21,1,0.06316,0.09117,0,0,90.0*
21,1,0.02590,0.12843,0,0,90.0*
1,1,0.03727,0.04558,0.01295*
1,1,0.03727,0.04558,-0.01295*
1,1,0.03727,-0.04558,-0.01295*
1,1,0.03727,-0.04558,0.01295*
%
%ADD17ROUNDEDRECTD17*%
G04:AMPARAMS|DCode=18|XSize=63.16mil|YSize=37.49mil|CornerRadius=18.74mil|HoleSize=0mil|Usage=FLASHONLY|Rotation=90.000|XOffset=0mil|YOffset=0mil|HoleType=Round|Shape=RoundedRectangle|*
%AMROUNDEDRECTD18*
21,1,0.06316,0.00000,0,0,90.0*
21,1,0.02568,0.03749,0,0,90.0*
1,1,0.03749,0.00000,0.01284*
1,1,0.03749,0.00000,-0.01284*
1,1,0.03749,0.00000,-0.01284*
1,1,0.03749,0.00000,0.01284*
%
%ADD18ROUNDEDRECTD18*%
%ADD19R,0.03749X0.06316*%
%ADD20R,0.04528X0.06102*%
%ADD21R,0.05512X0.04331*%
%ADD22R,0.04134X0.07874*%
%ADD23R,0.05236X0.05236*%
%ADD24R,0.07874X0.03543*%
%ADD25R,0.03543X0.07874*%
G04:AMPARAMS|DCode=26|XSize=47.24mil|YSize=118.11mil|CornerRadius=11.81mil|HoleSize=0mil|Usage=FLASHONLY|Rotation=180.000|XOffset=0mil|YOffset=0mil|HoleType=Round|Shape=RoundedRectangle|*
%AMROUNDEDRECTD26*
21,1,0.04724,0.09449,0,0,180.0*
21,1,0.02362,0.11811,0,0,180.0*
1,1,0.02362,-0.01181,0.04724*
1,1,0.02362,0.01181,0.04724*
1,1,0.02362,0.01181,-0.04724*
1,1,0.02362,-0.01181,-0.04724*
%
%ADD26ROUNDEDRECTD26*%
%ADD27C,0.00709*%
G36*
X231312Y116579D02*
X231160Y116478D01*
X220303Y105620D01*
X219803Y105827D01*
Y109092D01*
X227789Y117079D01*
X231160D01*
X231312Y116579D01*
D02*
G37*
G36*
X391016Y110675D02*
Y109659D01*
X390692Y109572D01*
X389891Y109109D01*
X389237Y108456D01*
X388775Y107655D01*
X388535Y106762D01*
Y105837D01*
X388775Y104944D01*
X389237Y104143D01*
X389891Y103489D01*
X390692Y103027D01*
X391585Y102787D01*
X392510D01*
X393403Y103027D01*
X393693Y103194D01*
X411173Y85714D01*
Y55152D01*
X399179Y43158D01*
X387028D01*
Y45689D01*
X384496D01*
Y51674D01*
X385185Y52134D01*
X385712Y52923D01*
X385897Y53854D01*
Y56422D01*
X385712Y57353D01*
X385185Y58142D01*
X384396Y58669D01*
X383465Y58854D01*
X382534Y58669D01*
X381744Y58142D01*
X381217Y57353D01*
X381032Y56422D01*
Y53854D01*
X381217Y52923D01*
X381744Y52134D01*
X382433Y51674D01*
Y45689D01*
X381476D01*
Y38563D01*
X387028D01*
Y41094D01*
X399606D01*
X400001Y41173D01*
X400336Y41396D01*
X410711Y51772D01*
X411173Y51581D01*
Y35073D01*
X393667Y17567D01*
X301406D01*
Y19035D01*
X302602D01*
Y18547D01*
X304874D01*
Y23484D01*
Y28421D01*
X302602D01*
Y27933D01*
X298091D01*
Y27933D01*
X297657D01*
Y27933D01*
X293158D01*
X293091Y27933D01*
X292657D01*
X292590Y27933D01*
X288158D01*
X288091Y27933D01*
X287657D01*
X287591Y27933D01*
X283157D01*
X283091Y27933D01*
X282658D01*
X282591Y27933D01*
X278157D01*
X278091Y27933D01*
X277658D01*
X277590Y27933D01*
X273158D01*
X273091Y27933D01*
X272657D01*
X272590Y27933D01*
X268158D01*
X268091Y27933D01*
X267657D01*
X267590Y27933D01*
X263158D01*
X263091Y27933D01*
X262657D01*
X262591Y27933D01*
X258157D01*
X258091Y27933D01*
X257658D01*
X257591Y27933D01*
X253157D01*
X253091Y27933D01*
X252658D01*
X252590Y27933D01*
X248091D01*
Y27933D01*
X247657D01*
Y27933D01*
X243091D01*
Y27933D01*
X242657D01*
Y27933D01*
X238091D01*
Y24367D01*
X199213D01*
Y38566D01*
X231988D01*
Y37220D01*
X231500D01*
Y34949D01*
X236437D01*
X241374D01*
Y37220D01*
X240886D01*
Y41665D01*
X240886Y41732D01*
Y42165D01*
X240886Y42232D01*
Y46665D01*
X240886Y46732D01*
Y47165D01*
X240886Y47232D01*
Y51665D01*
X240886Y51732D01*
Y52165D01*
X240886Y52232D01*
Y56665D01*
X240886Y56732D01*
Y57165D01*
X240886Y57232D01*
Y61665D01*
X240886Y61732D01*
Y62165D01*
X240886Y62232D01*
Y66665D01*
X240886Y66732D01*
Y67165D01*
X240886Y67232D01*
Y71665D01*
X240886Y71732D01*
Y72165D01*
X240886Y72232D01*
Y76732D01*
X240886D01*
Y77165D01*
X240886D01*
Y81732D01*
X231988D01*
Y80480D01*
X199213D01*
Y82975D01*
X240984D01*
X241322Y83042D01*
X241609Y83234D01*
X244339Y85965D01*
X247590D01*
X247657Y85965D01*
X248091D01*
X248158Y85965D01*
X252590D01*
X252658Y85965D01*
X253091D01*
X253157Y85965D01*
X257591D01*
X257658Y85965D01*
X258091D01*
X258157Y85965D01*
X262591D01*
X262657Y85965D01*
X263091D01*
X263158Y85965D01*
X267590D01*
X267657Y85965D01*
X268091D01*
X268158Y85965D01*
X272590D01*
X272657Y85965D01*
X273091D01*
X273158Y85965D01*
X277590D01*
X277658Y85965D01*
X278091D01*
X278157Y85965D01*
X282591D01*
X282658Y85965D01*
X283091D01*
X283157Y85965D01*
X287591D01*
X287657Y85965D01*
X288091D01*
X288158Y85965D01*
X292590D01*
X292657Y85965D01*
X293091D01*
X293158Y85965D01*
X297590D01*
X297657Y85965D01*
X298091D01*
X298158Y85965D01*
X302602D01*
Y85476D01*
X304874D01*
Y90413D01*
Y95350D01*
X302602D01*
Y94862D01*
X298158D01*
X298091Y94862D01*
X297657D01*
X297590Y94862D01*
X293158D01*
X293091Y94862D01*
X292657D01*
X292590Y94862D01*
X291406D01*
Y98431D01*
X291868Y98622D01*
X292380Y98110D01*
X292715Y97886D01*
X293109Y97808D01*
X358288D01*
X358683Y97886D01*
X359018Y98110D01*
X361978Y101070D01*
X362201Y101404D01*
X362280Y101799D01*
Y102787D01*
X362510D01*
X363403Y103027D01*
X364204Y103489D01*
X364857Y104143D01*
X365320Y104944D01*
X365559Y105837D01*
Y106762D01*
X365320Y107655D01*
X364857Y108456D01*
X364204Y109109D01*
X363403Y109572D01*
X362510Y109811D01*
X361585D01*
X360692Y109572D01*
X359891Y109109D01*
X359237Y108456D01*
X358775Y107655D01*
X358535Y106762D01*
Y105837D01*
X358775Y104944D01*
X359237Y104143D01*
X359891Y103489D01*
X360216Y103301D01*
Y102226D01*
X357861Y99871D01*
X293537D01*
X291406Y102002D01*
Y109626D01*
X291327Y110021D01*
X291104Y110355D01*
X288131Y113328D01*
X287796Y113551D01*
X287402Y113630D01*
X277559D01*
X277164Y113551D01*
X276830Y113328D01*
X274704Y111202D01*
X274480Y110867D01*
X274401Y110472D01*
Y109659D01*
X274078Y109572D01*
X273277Y109109D01*
X272623Y108456D01*
X272161Y107655D01*
X271921Y106762D01*
Y105837D01*
X272161Y104944D01*
X272623Y104143D01*
X273277Y103489D01*
X274078Y103027D01*
X274971Y102787D01*
X275895D01*
X276789Y103027D01*
X277589Y103489D01*
X278243Y104143D01*
X278706Y104944D01*
X278945Y105837D01*
Y106762D01*
X278706Y107655D01*
X278243Y108456D01*
X277589Y109109D01*
X276789Y109572D01*
X276631Y109614D01*
X276556Y110136D01*
X277986Y111567D01*
X286974D01*
X289342Y109199D01*
Y107210D01*
X288842Y107144D01*
X288705Y107655D01*
X288243Y108456D01*
X287589Y109109D01*
X286789Y109572D01*
X285895Y109811D01*
X284971D01*
X284078Y109572D01*
X283277Y109109D01*
X282623Y108456D01*
X282161Y107655D01*
X281921Y106762D01*
Y105837D01*
X282161Y104944D01*
X282623Y104143D01*
X283277Y103489D01*
X284078Y103027D01*
X284401Y102940D01*
Y94862D01*
X283157D01*
X283091Y94862D01*
X282658D01*
X282591Y94862D01*
X278157D01*
X278091Y94862D01*
X277658D01*
X277590Y94862D01*
X273158D01*
X273091Y94862D01*
X272657D01*
X272590Y94862D01*
X268158D01*
X268091Y94862D01*
X267657D01*
X267590Y94862D01*
X263158D01*
X263091Y94862D01*
X262657D01*
X262591Y94862D01*
X258157D01*
X258091Y94862D01*
X257658D01*
X257591Y94862D01*
X253157D01*
X253091Y94862D01*
X252658D01*
X252590Y94862D01*
X248158D01*
X248091Y94862D01*
X247657D01*
X247590Y94862D01*
X243158D01*
X243091Y94862D01*
Y94862D01*
X242657D01*
Y94862D01*
X241189D01*
Y100787D01*
X241111Y101182D01*
X240887Y101517D01*
X237344Y105060D01*
X237009Y105284D01*
X236614Y105362D01*
X233583D01*
Y108780D01*
X228425D01*
Y105362D01*
X226378D01*
X225983Y105284D01*
X225648Y105060D01*
X222604Y102016D01*
X219803D01*
Y103299D01*
X220472D01*
X220867Y103378D01*
X221202Y103601D01*
X232317Y114716D01*
X342171D01*
X348942Y107945D01*
X348775Y107655D01*
X348535Y106762D01*
Y105837D01*
X348775Y104944D01*
X349237Y104143D01*
X349891Y103489D01*
X350692Y103027D01*
X351585Y102787D01*
X352510D01*
X353403Y103027D01*
X354204Y103489D01*
X354857Y104143D01*
X355320Y104944D01*
X355559Y105837D01*
Y106762D01*
X355320Y107655D01*
X354857Y108456D01*
X354204Y109109D01*
X353403Y109572D01*
X352510Y109811D01*
X351585D01*
X350692Y109572D01*
X350401Y109404D01*
X343328Y116478D01*
X343177Y116579D01*
X343328Y117079D01*
X384612D01*
X391016Y110675D01*
D02*
G37*
G36*
X239126Y100360D02*
Y94862D01*
X238091D01*
Y85965D01*
X241188D01*
X241380Y85503D01*
X240618Y84741D01*
X199213D01*
Y103299D01*
X213268D01*
Y98307D01*
X219803D01*
Y99953D01*
X223031D01*
X223426Y100031D01*
X223761Y100255D01*
X226805Y103299D01*
X228425D01*
Y99882D01*
X233583D01*
Y103299D01*
X236187D01*
X239126Y100360D01*
D02*
G37*
G36*
X289342Y105389D02*
Y101575D01*
Y94862D01*
X288158D01*
X288091Y94862D01*
X287657D01*
X287591Y94862D01*
X286465D01*
Y102940D01*
X286789Y103027D01*
X287589Y103489D01*
X288243Y104143D01*
X288705Y104944D01*
X288842Y105454D01*
X289342Y105389D01*
D02*
G37*
G36*
X231988Y77165D02*
X231988D01*
Y76732D01*
X231988D01*
Y75332D01*
X199213D01*
Y78417D01*
X231988D01*
Y77165D01*
D02*
G37*
G36*
Y72232D02*
X231988Y72165D01*
Y71732D01*
X231988Y71665D01*
Y67232D01*
X231988Y67165D01*
Y66732D01*
X231988Y66665D01*
Y62232D01*
X231988Y62165D01*
Y61732D01*
X231988Y61665D01*
Y57232D01*
X231988Y57165D01*
Y56732D01*
X231988Y56665D01*
Y52232D01*
X231988Y52165D01*
Y51732D01*
X231988Y51665D01*
Y47232D01*
X231988Y47165D01*
Y46732D01*
X231988Y46665D01*
Y42232D01*
X231988Y42165D01*
Y41732D01*
X231988Y41665D01*
Y40332D01*
X199213D01*
Y73566D01*
X231988D01*
Y72232D01*
D02*
G37*
G36*
X249491Y16161D02*
X249558Y15823D01*
X249750Y15537D01*
X257250Y8037D01*
X257536Y7846D01*
X257874Y7778D01*
X419685D01*
Y5214D01*
X255090D01*
X246257Y14047D01*
Y19035D01*
X247657D01*
Y19035D01*
X248091D01*
Y19035D01*
X249491D01*
Y16161D01*
D02*
G37*
G36*
X419685Y25658D02*
X407508Y13482D01*
X270444D01*
X266257Y17669D01*
Y19035D01*
X267590D01*
X267657Y19035D01*
X268091D01*
X268158Y19035D01*
X272590D01*
X272657Y19035D01*
X273091D01*
X273158Y19035D01*
X277590D01*
X277658Y19035D01*
X278091D01*
X278157Y19035D01*
X282591D01*
X282658Y19035D01*
X283091D01*
X283157Y19035D01*
X287591D01*
X287657Y19035D01*
X288091D01*
X288158Y19035D01*
X292590D01*
X292657Y19035D01*
X293091D01*
X293158Y19035D01*
X294244D01*
Y17121D01*
X294322Y16726D01*
X294546Y16392D01*
X295132Y15806D01*
X295467Y15582D01*
X295861Y15504D01*
X394094D01*
X394489Y15582D01*
X394824Y15806D01*
X412934Y33916D01*
X413158Y34251D01*
X413236Y34646D01*
Y54724D01*
Y86142D01*
X413158Y86537D01*
X412934Y86871D01*
X395152Y104653D01*
X395320Y104944D01*
X395559Y105837D01*
Y106762D01*
X395320Y107655D01*
X394857Y108456D01*
X394203Y109109D01*
X393403Y109572D01*
X393079Y109659D01*
Y111102D01*
X393000Y111497D01*
X392777Y111832D01*
X385769Y118840D01*
X385434Y119063D01*
X385039Y119142D01*
X227362D01*
X226967Y119063D01*
X226633Y118840D01*
X218344Y110551D01*
X218049D01*
X217950Y110571D01*
X217850Y110551D01*
X213268D01*
Y105362D01*
X199213D01*
Y120079D01*
X419685D01*
Y25658D01*
D02*
G37*
G36*
Y22507D02*
Y9544D01*
X258240D01*
X251257Y16527D01*
Y19035D01*
X252590D01*
X252658Y19035D01*
X253091D01*
X253157Y19035D01*
X257591D01*
X257658Y19035D01*
X258091D01*
X258157Y19035D01*
X262591D01*
X262657Y19035D01*
X263091D01*
X263158Y19035D01*
X264491D01*
Y17303D01*
X264558Y16965D01*
X264750Y16679D01*
X269454Y11974D01*
X269741Y11783D01*
X270079Y11715D01*
X407874D01*
X408212Y11783D01*
X408498Y11974D01*
X419223Y22699D01*
X419685Y22507D01*
D02*
G37*
G36*
X238091Y19035D02*
X242657D01*
Y19035D01*
X243091D01*
Y19035D01*
X244491D01*
Y13681D01*
X244558Y13343D01*
X244750Y13057D01*
X254100Y3706D01*
X254386Y3515D01*
X254724Y3448D01*
X419685D01*
Y1969D01*
X199213D01*
Y22601D01*
X238091D01*
Y19035D01*
D02*
G37*
%LPC*%
G36*
X382574Y110299D02*
X382547D01*
Y106799D01*
X386047D01*
Y106826D01*
X385775Y107843D01*
X385248Y108755D01*
X384503Y109500D01*
X383591Y110027D01*
X382574Y110299D01*
D02*
G37*
G36*
X381547D02*
X381521D01*
X380503Y110027D01*
X379591Y109500D01*
X378846Y108755D01*
X378320Y107843D01*
X378047Y106826D01*
Y106799D01*
X381547D01*
Y110299D01*
D02*
G37*
G36*
X315960D02*
X315933D01*
Y106799D01*
X319433D01*
Y106826D01*
X319161Y107843D01*
X318634Y108755D01*
X317889Y109500D01*
X316977Y110027D01*
X315960Y110299D01*
D02*
G37*
G36*
X314933D02*
X314907D01*
X313889Y110027D01*
X312977Y109500D01*
X312232Y108755D01*
X311706Y107843D01*
X311433Y106826D01*
Y106799D01*
X314933D01*
Y110299D01*
D02*
G37*
G36*
X251590Y109268D02*
X249024D01*
Y104831D01*
X251590D01*
Y109268D01*
D02*
G37*
G36*
X248024D02*
X245457D01*
Y104831D01*
X248024D01*
Y109268D01*
D02*
G37*
G36*
X372510Y109811D02*
X371585D01*
X370692Y109572D01*
X369891Y109109D01*
X369237Y108456D01*
X368775Y107655D01*
X368535Y106762D01*
Y105837D01*
X368775Y104944D01*
X369237Y104143D01*
X369891Y103489D01*
X370692Y103027D01*
X371585Y102787D01*
X372510D01*
X373403Y103027D01*
X374203Y103489D01*
X374857Y104143D01*
X375320Y104944D01*
X375559Y105837D01*
Y106762D01*
X375320Y107655D01*
X374857Y108456D01*
X374203Y109109D01*
X373403Y109572D01*
X372510Y109811D01*
D02*
G37*
G36*
X342510D02*
X341585D01*
X340692Y109572D01*
X339891Y109109D01*
X339237Y108456D01*
X338775Y107655D01*
X338535Y106762D01*
Y105837D01*
X338775Y104944D01*
X339237Y104143D01*
X339891Y103489D01*
X340692Y103027D01*
X341585Y102787D01*
X342510D01*
X343403Y103027D01*
X344203Y103489D01*
X344857Y104143D01*
X345320Y104944D01*
X345559Y105837D01*
Y106762D01*
X345320Y107655D01*
X344857Y108456D01*
X344203Y109109D01*
X343403Y109572D01*
X342510Y109811D01*
D02*
G37*
G36*
X305895D02*
X304971D01*
X304078Y109572D01*
X303277Y109109D01*
X302623Y108456D01*
X302161Y107655D01*
X301921Y106762D01*
Y105837D01*
X302161Y104944D01*
X302623Y104143D01*
X303277Y103489D01*
X304078Y103027D01*
X304971Y102787D01*
X305895D01*
X306789Y103027D01*
X307589Y103489D01*
X308243Y104143D01*
X308705Y104944D01*
X308945Y105837D01*
Y106762D01*
X308705Y107655D01*
X308243Y108456D01*
X307589Y109109D01*
X306789Y109572D01*
X305895Y109811D01*
D02*
G37*
G36*
X295895D02*
X294971D01*
X294078Y109572D01*
X293277Y109109D01*
X292623Y108456D01*
X292161Y107655D01*
X291921Y106762D01*
Y105837D01*
X292161Y104944D01*
X292623Y104143D01*
X293277Y103489D01*
X294078Y103027D01*
X294971Y102787D01*
X295895D01*
X296789Y103027D01*
X297589Y103489D01*
X298243Y104143D01*
X298706Y104944D01*
X298945Y105837D01*
Y106762D01*
X298706Y107655D01*
X298243Y108456D01*
X297589Y109109D01*
X296789Y109572D01*
X295895Y109811D01*
D02*
G37*
G36*
X265895D02*
X264971D01*
X264078Y109572D01*
X263277Y109109D01*
X262623Y108456D01*
X262161Y107655D01*
X261921Y106762D01*
Y105837D01*
X262161Y104944D01*
X262623Y104143D01*
X263277Y103489D01*
X264078Y103027D01*
X264971Y102787D01*
X265895D01*
X266789Y103027D01*
X267589Y103489D01*
X268243Y104143D01*
X268706Y104944D01*
X268945Y105837D01*
Y106762D01*
X268706Y107655D01*
X268243Y108456D01*
X267589Y109109D01*
X266789Y109572D01*
X265895Y109811D01*
D02*
G37*
G36*
X386047Y105799D02*
X382547D01*
Y102299D01*
X382574D01*
X383591Y102572D01*
X384503Y103098D01*
X385248Y103843D01*
X385775Y104755D01*
X386047Y105773D01*
Y105799D01*
D02*
G37*
G36*
X381547D02*
X378047D01*
Y105773D01*
X378320Y104755D01*
X378846Y103843D01*
X379591Y103098D01*
X380503Y102572D01*
X381521Y102299D01*
X381547D01*
Y105799D01*
D02*
G37*
G36*
X319433D02*
X315933D01*
Y102299D01*
X315960D01*
X316977Y102572D01*
X317889Y103098D01*
X318634Y103843D01*
X319161Y104755D01*
X319433Y105773D01*
Y105799D01*
D02*
G37*
G36*
X314933D02*
X311433D01*
Y105773D01*
X311706Y104755D01*
X312232Y103843D01*
X312977Y103098D01*
X313889Y102572D01*
X314907Y102299D01*
X314933D01*
Y105799D01*
D02*
G37*
G36*
X251590Y103831D02*
X249024D01*
Y99394D01*
X251590D01*
Y103831D01*
D02*
G37*
G36*
X248024D02*
X245457D01*
Y99394D01*
X248024D01*
Y103831D01*
D02*
G37*
G36*
X308146Y95350D02*
X305874D01*
Y90913D01*
X308146D01*
Y95350D01*
D02*
G37*
G36*
Y89913D02*
X305874D01*
Y85476D01*
X308146D01*
Y89913D01*
D02*
G37*
G36*
X388023Y85587D02*
X378906D01*
X377980Y85402D01*
X377194Y84877D01*
X376669Y84092D01*
X376485Y83165D01*
Y80575D01*
X376669Y79649D01*
X377194Y78863D01*
X377980Y78338D01*
X378906Y78154D01*
X388023D01*
X388949Y78338D01*
X389735Y78863D01*
X390260Y79649D01*
X390444Y80575D01*
Y83165D01*
X390260Y84092D01*
X389735Y84877D01*
X388949Y85402D01*
X388023Y85587D01*
D02*
G37*
G36*
X268122Y63854D02*
X265004D01*
Y60736D01*
X268122D01*
Y63854D01*
D02*
G37*
G36*
X286689D02*
X283571D01*
Y60736D01*
X286689D01*
Y63854D01*
D02*
G37*
G36*
X282571D02*
X276346D01*
Y60236D01*
X275346D01*
Y63854D01*
X269122D01*
Y60236D01*
X268622D01*
Y59736D01*
X265004D01*
Y56618D01*
Y53512D01*
X268622D01*
Y52512D01*
X265004D01*
Y49394D01*
Y46287D01*
X268622D01*
Y45787D01*
X269122D01*
Y42169D01*
X275346D01*
Y45787D01*
X276346D01*
Y42169D01*
X282571D01*
Y45787D01*
X283071D01*
Y46287D01*
X286689D01*
Y49394D01*
Y52512D01*
X283071D01*
Y53512D01*
X286689D01*
Y56618D01*
Y59736D01*
X283071D01*
Y60236D01*
X282571D01*
Y63854D01*
D02*
G37*
G36*
X395355Y59296D02*
X392980D01*
Y55638D01*
X395355D01*
Y59296D01*
D02*
G37*
G36*
X391980D02*
X389606D01*
Y55638D01*
X391980D01*
Y59296D01*
D02*
G37*
G36*
X351024Y62066D02*
X350342D01*
Y55618D01*
X353247D01*
Y59842D01*
X353078Y60694D01*
X352596Y61415D01*
X351875Y61897D01*
X351024Y62066D01*
D02*
G37*
G36*
X349342D02*
X348661D01*
X347810Y61897D01*
X347089Y61415D01*
X346607Y60694D01*
X346438Y59842D01*
Y55618D01*
X349342D01*
Y62066D01*
D02*
G37*
G36*
X395355Y54638D02*
X392980D01*
Y50980D01*
X395355D01*
Y54638D01*
D02*
G37*
G36*
X391980D02*
X389606D01*
Y50980D01*
X391980D01*
Y54638D01*
D02*
G37*
G36*
X353247Y54618D02*
X350342D01*
Y48170D01*
X351024D01*
X351875Y48339D01*
X352596Y48821D01*
X353078Y49543D01*
X353247Y50394D01*
Y54618D01*
D02*
G37*
G36*
X349342D02*
X346438D01*
Y50394D01*
X346607Y49543D01*
X347089Y48821D01*
X347810Y48339D01*
X348661Y48170D01*
X349342D01*
Y54618D01*
D02*
G37*
G36*
X286689Y45287D02*
X283571D01*
Y42169D01*
X286689D01*
Y45287D01*
D02*
G37*
G36*
X268122Y45287D02*
X265004D01*
Y42169D01*
X268122D01*
Y45287D01*
D02*
G37*
G36*
X361024Y61569D02*
X358661D01*
X358001Y61437D01*
X357441Y61063D01*
X357067Y60503D01*
X356935Y59842D01*
Y50394D01*
X357067Y49733D01*
X357441Y49173D01*
X358001Y48799D01*
X358661Y48668D01*
X361024D01*
X361684Y48799D01*
X362244Y49173D01*
X362618Y49733D01*
X362750Y50394D01*
Y54106D01*
X372016D01*
Y53854D01*
X372201Y52923D01*
X372728Y52134D01*
X373417Y51674D01*
Y41161D01*
X371240D01*
Y36398D01*
X377579D01*
Y41161D01*
X375481D01*
Y51674D01*
X376169Y52134D01*
X376696Y52923D01*
X376882Y53854D01*
Y56422D01*
X376696Y57353D01*
X376169Y58142D01*
X375380Y58669D01*
X374449Y58854D01*
X373518Y58669D01*
X372728Y58142D01*
X372201Y57353D01*
X372016Y56422D01*
Y56169D01*
X362750D01*
Y59842D01*
X362618Y60503D01*
X362244Y61063D01*
X361684Y61437D01*
X361024Y61569D01*
D02*
G37*
G36*
X387516Y37516D02*
X384752D01*
Y33965D01*
X387516D01*
Y37516D01*
D02*
G37*
G36*
X383752D02*
X380988D01*
Y33965D01*
X383752D01*
Y37516D01*
D02*
G37*
G36*
X378067Y35744D02*
X374909D01*
Y33374D01*
X378067D01*
Y35744D01*
D02*
G37*
G36*
X373909D02*
X370752D01*
Y33374D01*
X373909D01*
Y35744D01*
D02*
G37*
G36*
X241374Y33949D02*
X236937D01*
Y31677D01*
X241374D01*
Y33949D01*
D02*
G37*
G36*
X235937D02*
X231500D01*
Y31677D01*
X235937D01*
Y33949D01*
D02*
G37*
G36*
X378067Y32374D02*
X374909D01*
Y30004D01*
X378067D01*
Y32374D01*
D02*
G37*
G36*
X373909D02*
X370752D01*
Y30004D01*
X373909D01*
Y32374D01*
D02*
G37*
G36*
X387516Y32965D02*
X384752D01*
Y29413D01*
X387516D01*
Y32965D01*
D02*
G37*
G36*
X383752D02*
X380988D01*
Y29413D01*
X383752D01*
Y32965D01*
D02*
G37*
G36*
X308146Y28421D02*
X305874D01*
Y23984D01*
X308146D01*
Y28421D01*
D02*
G37*
G36*
X334862Y92936D02*
X310059D01*
X309667Y92773D01*
X309505Y92382D01*
Y21515D01*
X309667Y21124D01*
X310059Y20961D01*
X334862D01*
X335254Y21124D01*
X335416Y21515D01*
Y92382D01*
X335254Y92773D01*
X334862Y92936D01*
D02*
G37*
G36*
X308146Y22984D02*
X305874D01*
Y18547D01*
X308146D01*
Y22984D01*
D02*
G37*
%LPD*%
D10*
X240158Y90630D02*
Y100787D01*
Y90630D02*
X240374Y90413D01*
X236614Y104331D02*
X240158Y100787D01*
X277559Y112598D02*
X287402D01*
X290374Y101575D02*
Y109626D01*
X287402Y112598D02*
X290374Y109626D01*
X275433Y106299D02*
Y110472D01*
X277559Y112598D01*
X105512Y106693D02*
Y442913D01*
X126378Y463779D01*
X188976D01*
X187402Y395276D02*
X203543Y411417D01*
Y449213D01*
X188976Y463779D02*
X203543Y449213D01*
X121260Y395276D02*
X187402D01*
X384252Y42126D02*
X399606D01*
X383465Y42913D02*
Y55138D01*
Y42913D02*
X384252Y42126D01*
X215729Y107319D02*
X217950Y109539D01*
X231890Y115748D02*
X342598D01*
X220472Y104331D02*
X231890Y115748D01*
X342598D02*
X352047Y106299D01*
X226378Y104331D02*
X231004D01*
X216535Y100984D02*
X223031D01*
X226378Y104331D01*
X231004D02*
X236614D01*
X216535Y107874D02*
X217126D01*
X227362Y118110D01*
X385039D01*
X133858Y104331D02*
X220472D01*
X214315Y107319D02*
X215729D01*
X115748Y122441D02*
X133858Y104331D01*
X385039Y118110D02*
X392047Y111102D01*
X412205Y54724D02*
Y86142D01*
Y34646D02*
Y54724D01*
X399606Y42126D02*
X412205Y54724D01*
X359862Y55138D02*
X374449D01*
X359842Y55118D02*
X359862Y55138D01*
X374410Y38780D02*
X374449Y38819D01*
Y55138D01*
X392047Y106299D02*
X412205Y86142D01*
X300374Y16535D02*
X394094D01*
X412205Y34646D01*
X392047Y106299D02*
Y111102D01*
X300374Y16535D02*
Y23484D01*
X115748Y122441D02*
Y389764D01*
X105512Y106693D02*
X132756Y79449D01*
X236437D01*
X293109Y98839D02*
X358288D01*
X290374Y101575D02*
X293109Y98839D01*
X358288D02*
X361248Y101799D01*
Y105500D02*
X362047Y106299D01*
X361248Y101799D02*
Y105500D01*
X115748Y389764D02*
X121260Y395276D01*
X290374Y90413D02*
Y101575D01*
X268622Y53012D02*
X275847D01*
X295861Y16535D02*
X300374D01*
X295276Y17121D02*
X295861Y16535D01*
X295276Y17121D02*
Y23386D01*
X285433Y90472D02*
Y106299D01*
X295276Y23386D02*
X295374Y23484D01*
D14*
X372047Y106299D02*
D03*
X382047D02*
D03*
X392047D02*
D03*
X362047D02*
D03*
X352047D02*
D03*
X342047D02*
D03*
X295433D02*
D03*
X305433D02*
D03*
X315433D02*
D03*
X285433D02*
D03*
X275433D02*
D03*
X265433D02*
D03*
D15*
X555905Y150787D02*
D03*
X513779Y337008D02*
D03*
X88189Y112598D02*
D03*
X53937Y82284D02*
D03*
X459449Y81102D02*
D03*
X179921Y421260D02*
D03*
X19291Y357087D02*
D03*
D16*
X374410Y38780D02*
D03*
Y32874D02*
D03*
D17*
X383465Y81870D02*
D03*
D18*
X374449Y55138D02*
D03*
X383465D02*
D03*
D19*
X392480D02*
D03*
D20*
X384252Y42126D02*
D03*
Y33465D02*
D03*
D21*
X216535Y107874D02*
D03*
Y100984D02*
D03*
D22*
X248524Y104331D02*
D03*
X231004D02*
D03*
D23*
X268622Y60236D02*
D03*
Y53012D02*
D03*
Y45787D02*
D03*
X275847Y60236D02*
D03*
Y53012D02*
D03*
Y45787D02*
D03*
X283071Y60236D02*
D03*
Y53012D02*
D03*
Y45787D02*
D03*
D24*
X236437Y79449D02*
D03*
Y74449D02*
D03*
Y69449D02*
D03*
Y64449D02*
D03*
Y59449D02*
D03*
Y54449D02*
D03*
Y49449D02*
D03*
Y44449D02*
D03*
Y39449D02*
D03*
Y34449D02*
D03*
D25*
X305374Y90413D02*
D03*
X300374D02*
D03*
X295374D02*
D03*
X290374D02*
D03*
X285374D02*
D03*
X280374D02*
D03*
X275374D02*
D03*
X270374D02*
D03*
X265374D02*
D03*
X260374D02*
D03*
X255374D02*
D03*
X250374D02*
D03*
X245374D02*
D03*
X240374D02*
D03*
Y23484D02*
D03*
X245374D02*
D03*
X250374D02*
D03*
X255374D02*
D03*
X260374D02*
D03*
X265374D02*
D03*
X270374D02*
D03*
X275374D02*
D03*
X280374D02*
D03*
X285374D02*
D03*
X290374D02*
D03*
X295374D02*
D03*
X300374D02*
D03*
X305374D02*
D03*
D26*
X359842Y55118D02*
D03*
X349843D02*
D03*
D27*
X270079Y12598D02*
X407874D01*
X459449Y64173D01*
X265374Y17303D02*
X270079Y12598D01*
X257874Y8661D02*
X431102D01*
X250374Y16161D02*
X257874Y8661D01*
X431102D02*
X513779Y91339D01*
X110630Y114173D02*
X140945Y83858D01*
X110630Y393307D02*
X120472Y403150D01*
X110630Y114173D02*
Y393307D01*
X19291Y159055D02*
X138898Y39449D01*
X19291Y159055D02*
Y357087D01*
X138898Y39449D02*
X236437D01*
X140945Y83858D02*
X240984D01*
X120472Y403150D02*
X175984D01*
X179921Y407087D01*
X240984Y83858D02*
X245374Y88248D01*
Y90413D01*
X110197Y74449D02*
X236437D01*
X106122Y78524D02*
X110197Y74449D01*
X96457Y27559D02*
X100531Y23484D01*
X240374D01*
X179921Y407087D02*
Y421260D01*
X88189Y96457D02*
Y112598D01*
Y96457D02*
X106122Y78524D01*
X254724Y4331D02*
X463386D01*
X555905Y96850D01*
X245374Y13681D02*
X254724Y4331D01*
X555905Y96850D02*
Y150787D01*
X245374Y13681D02*
Y23484D01*
X250374Y16161D02*
Y23484D01*
X513779Y91339D02*
Y337008D01*
X459449Y64173D02*
Y81102D01*
X265374Y17303D02*
Y23484D01*
X285374Y90413D02*
X285433Y90472D01*
X53937Y70079D02*
Y82284D01*
Y70079D02*
X96457Y27559D01*
M02*
