G04*
G04 #@! TF.GenerationSoftware,Altium Limited,Altium Designer,21.1.1 (26)*
G04*
G04 Layer_Physical_Order=1*
G04 Layer_Color=255*
%FSLAX25Y25*%
%MOIN*%
G70*
G04*
G04 #@! TF.SameCoordinates,50609B49-341D-4E51-95AC-B49047DEAD09*
G04*
G04*
G04 #@! TF.FilePolarity,Positive*
G04*
G01*
G75*
%ADD14C,0.06000*%
%ADD15C,0.02362*%
G36*
X22340Y391561D02*
X24232Y390934D01*
X26000Y390014D01*
X27598Y388824D01*
X28987Y387394D01*
X30130Y385762D01*
X30998Y383968D01*
X31570Y382059D01*
X31830Y380083D01*
X31772Y378091D01*
X31398Y376133D01*
X31057Y375197D01*
X31057Y375197D01*
X19291Y353543D01*
X7696Y375197D01*
X7355Y376133D01*
X6980Y378091D01*
X6922Y380083D01*
X7182Y382059D01*
X7754Y383968D01*
X8623Y385761D01*
X9766Y387394D01*
X11154Y388824D01*
X12753Y390014D01*
X14520Y390934D01*
X16412Y391561D01*
X18380Y391878D01*
X20373Y391878D01*
X22340Y391561D01*
D02*
G37*
G36*
X91238Y146679D02*
X93129Y146052D01*
X94897Y145132D01*
X96496Y143942D01*
X97885Y142512D01*
X99028Y140880D01*
X99896Y139086D01*
X100468Y137177D01*
X100728Y135201D01*
X100670Y133209D01*
X100295Y131252D01*
X99954Y130315D01*
X99954Y130315D01*
X88189Y108661D01*
X76593Y130315D01*
X76253Y131251D01*
X75878Y133209D01*
X75820Y135201D01*
X76080Y137177D01*
X76652Y139086D01*
X77520Y140880D01*
X78663Y142512D01*
X80052Y143942D01*
X81650Y145132D01*
X83418Y146052D01*
X85310Y146679D01*
X87277Y146996D01*
X89270Y146996D01*
X91238Y146679D01*
D02*
G37*
G36*
X56986Y116364D02*
X58878Y115737D01*
X60645Y114817D01*
X62244Y113627D01*
X63633Y112197D01*
X64776Y110565D01*
X65644Y108771D01*
X66216Y106862D01*
X66476Y104886D01*
X66418Y102894D01*
X66043Y100936D01*
X65702Y100000D01*
X65703Y100000D01*
X53937Y78347D01*
X42341Y100000D01*
X42001Y100936D01*
X41626Y102894D01*
X41568Y104886D01*
X41828Y106862D01*
X42400Y108771D01*
X43268Y110565D01*
X44411Y112197D01*
X45800Y113627D01*
X47398Y114817D01*
X49166Y115737D01*
X51058Y116364D01*
X53025Y116682D01*
X55018Y116682D01*
X56986Y116364D01*
D02*
G37*
G36*
X447853Y99212D02*
X447512Y100149D01*
X447138Y102106D01*
X447080Y104098D01*
X447340Y106074D01*
X447912Y107984D01*
X448780Y109777D01*
X449923Y111410D01*
X451312Y112839D01*
X452910Y114030D01*
X454678Y114950D01*
X456570Y115577D01*
X458537Y115894D01*
X460530Y115894D01*
X462498Y115577D01*
X464389Y114950D01*
X466157Y114030D01*
X467756Y112839D01*
X469144Y111410D01*
X470287Y109777D01*
X471156Y107984D01*
X471728Y106075D01*
X471988Y104099D01*
X471930Y102106D01*
X471555Y100149D01*
X471214Y99213D01*
X471214Y99213D01*
X459449Y77559D01*
X447853Y99212D01*
D02*
G37*
G36*
X168326Y439370D02*
X167985Y440306D01*
X167610Y442264D01*
X167552Y444256D01*
X167812Y446232D01*
X168384Y448141D01*
X169252Y449935D01*
X170396Y451567D01*
X171784Y452997D01*
X173383Y454187D01*
X175150Y455107D01*
X177042Y455734D01*
X179010Y456052D01*
X181002Y456052D01*
X182970Y455734D01*
X184862Y455107D01*
X186630Y454187D01*
X188228Y452997D01*
X189617Y451568D01*
X190760Y449935D01*
X191628Y448141D01*
X192200Y446232D01*
X192460Y444256D01*
X192402Y442264D01*
X192028Y440307D01*
X191687Y439370D01*
X191687Y439370D01*
X179921Y417717D01*
X168326Y439370D01*
D02*
G37*
G36*
X544310Y167717D02*
X543969Y168653D01*
X543595Y170610D01*
X543537Y172602D01*
X543797Y174578D01*
X544368Y176488D01*
X545237Y178281D01*
X546380Y179914D01*
X547768Y181343D01*
X549367Y182533D01*
X551135Y183454D01*
X553026Y184081D01*
X554994Y184398D01*
X556987Y184398D01*
X558954Y184081D01*
X560846Y183454D01*
X562614Y182534D01*
X564212Y181343D01*
X565601Y179914D01*
X566744Y178281D01*
X567613Y176488D01*
X568184Y174578D01*
X568444Y172603D01*
X568386Y170610D01*
X568012Y168653D01*
X567671Y167717D01*
X567671Y167717D01*
X555905Y146063D01*
X544310Y167717D01*
D02*
G37*
G36*
X502184Y354331D02*
X501843Y355267D01*
X501469Y357224D01*
X501410Y359216D01*
X501671Y361192D01*
X502242Y363102D01*
X503111Y364895D01*
X504254Y366528D01*
X505642Y367957D01*
X507241Y369148D01*
X509009Y370068D01*
X510900Y370695D01*
X512868Y371012D01*
X514861Y371012D01*
X516828Y370695D01*
X518720Y370068D01*
X520488Y369148D01*
X522086Y367958D01*
X523475Y366528D01*
X524618Y364896D01*
X525487Y363102D01*
X526058Y361193D01*
X526318Y359217D01*
X526260Y357225D01*
X525886Y355267D01*
X525545Y354331D01*
X525545Y354331D01*
X513779Y332677D01*
X502184Y354331D01*
D02*
G37*
D14*
X459449Y97244D02*
D03*
X179921Y437402D02*
D03*
X53937Y98032D02*
D03*
X19291Y373228D02*
D03*
X513779Y352362D02*
D03*
X88189Y128347D02*
D03*
X555905Y165748D02*
D03*
D15*
Y150787D02*
D03*
X513779Y337008D02*
D03*
X88189Y112598D02*
D03*
X53937Y82284D02*
D03*
X459449Y81102D02*
D03*
X179921Y421260D02*
D03*
X19291Y357087D02*
D03*
M02*
